<?xml version="1.0" encoding="UTF-8"?>
<svg width="190px" height="60px" viewBox="0 0 190 60" version="1.1" xmlns="http://www.w3.org/2000/svg" xmlns:xlink="http://www.w3.org/1999/xlink">
    <title>sidebar/identity/logo</title>
    <g id="sidebar/identity/logo" stroke="none" stroke-width="1" fill="none" fill-rule="evenodd">
        <path d="M25.7567201,11.6882597 L16.6659306,27.1477766 C15.7780635,28.6583157 15.7780635,30.5188143 16.6659306,32.0287583 L25.7567201,47.48768 C26.0300498,47.9531022 26.7130712,47.9531022 26.9864009,47.48768 L36.0771904,32.0287583 C36.9650575,30.5188143 36.9650575,28.6583157 36.0771904,27.1477766 L26.9864009,11.6882597 C26.7130712,11.2234327 26.0300498,11.2234327 25.7567201,11.6882597" id="shape" fill="#3589E8"></path>
        <path d="M29.765031,10.1570682 L38.8527902,25.6183706 C39.7400513,27.1289098 41.3812418,28.059159 43.156976,28.059159 L61.3355247,28.0573735 C61.8821842,28.0573735 62.2233918,27.4764885 61.9500621,27.0116614 L52.8623028,11.550359 C51.9744357,10.0398199 50.3338513,9.10957063 48.5581171,9.10957063 L30.3795684,9.11135614 C29.8329089,9.11135614 29.4917013,9.69224116 29.765031,10.1570682" id="shape" fill="#4DAFFF"></path>
        <path d="M29.765031,49.0194667 L38.8527902,33.5575691 C39.7400513,32.0476251 41.3812418,31.1173758 43.156976,31.1173758 L61.3355247,31.1191614 C61.8821842,31.1197565 62.2233918,31.7000464 61.9500621,32.1654686 L52.8623028,47.6261758 C51.9744357,49.1361198 50.3338513,50.0669643 48.5581171,50.0669643 L30.3795684,50.0651787 C29.8329089,50.0651787 29.4917013,49.4836986 29.765031,49.0194667" id="shape" fill="#1E62D1"></path>
        <path d="M154.191314,35.3815145 C154.743065,35.3815145 155.247943,35.4675113 155.70595,35.6395048 C156.163956,35.8114982 156.557681,36.0614262 156.887125,36.3892888 C157.216568,36.7171514 157.473694,37.1189174 157.658504,37.5945868 C157.843314,38.0702563 157.935718,38.6090796 157.935718,39.2110567 C157.935718,39.3991746 157.927683,39.5523563 157.911613,39.6706018 C157.895542,39.7888473 157.86608,39.8829062 157.823226,39.9527786 C157.780371,40.0226509 157.722786,40.0710241 157.650469,40.0978981 C157.578152,40.1247721 157.485747,40.138209 157.373254,40.138209 L157.373254,40.138209 L152.568204,40.138209 L152.599848,40.3640002 C152.697197,40.9471324 152.898242,41.3784432 153.202985,41.6579326 C153.54582,41.9723582 153.987756,42.129571 154.528793,42.129571 C154.81806,42.129571 155.067151,42.0946348 155.276067,42.0247625 C155.484982,41.9548901 155.671131,41.8769556 155.834513,41.7909588 C155.997896,41.7049621 156.147886,41.6270275 156.284484,41.5571552 C156.421083,41.4872828 156.564377,41.4523467 156.714368,41.4523467 C156.912569,41.4523467 157.06256,41.5249064 157.164339,41.6700259 L157.164339,41.6700259 L157.887507,42.5649295 L157.730821,42.7356867 C157.518691,42.9545484 157.293706,43.1381515 157.055864,43.2864958 C156.758561,43.4719263 156.453224,43.6170458 156.139851,43.7218543 C155.826478,43.8266628 155.513105,43.8992226 155.199732,43.9395335 C154.886359,43.9798445 154.587718,44 154.303807,44 C153.719916,44 153.172183,43.9045974 152.660608,43.7137921 C152.149034,43.5229869 151.701741,43.2394664 151.31873,42.8632306 C150.935718,42.4869949 150.633059,42.0193877 150.410752,41.4604089 C150.188445,40.9014301 150.077291,40.2510798 150.077291,39.5093579 C150.077291,38.9503791 150.172374,38.4209617 150.362541,37.9211057 C150.552707,37.4212496 150.825904,36.9832038 151.182131,36.606968 C151.538359,36.2307323 151.969581,35.9324311 152.475799,35.7120645 C152.982016,35.4916979 153.553855,35.3815145 154.191314,35.3815145 Z M146.127989,35.3815145 C146.781519,35.3815145 147.354697,35.4863231 147.847522,35.6959401 C148.340348,35.9055572 148.784963,36.2119205 149.181366,36.6150302 L149.181366,36.6150302 L148.522479,37.4938094 L148.448377,37.5789103 C148.399571,37.6314639 148.351955,37.6756567 148.305529,37.7114886 C148.235891,37.7652366 148.13679,37.7921106 148.008227,37.7921106 C147.88502,37.7921106 147.773866,37.7625492 147.674766,37.7034264 C147.575665,37.6443037 147.464511,37.5784624 147.341305,37.5059027 C147.218098,37.4333429 147.073465,37.3675017 146.907404,37.3083789 C146.741343,37.2492562 146.535106,37.2196948 146.288693,37.2196948 C145.983356,37.2196948 145.719533,37.2761301 145.497226,37.3890009 C145.274919,37.5018716 145.091448,37.6631155 144.946815,37.8727325 C144.802181,38.0823496 144.695045,38.3389961 144.625407,38.642672 C144.555768,38.946348 144.520949,39.2889913 144.520949,39.6706018 C144.520949,40.4714464 144.674957,41.0868605 144.982973,41.5168442 C145.290989,41.9468279 145.715516,42.1618198 146.256553,42.1618198 C146.54582,42.1618198 146.774823,42.1255399 146.943562,42.0529801 C147.112302,41.9804204 147.255596,41.8997984 147.373446,41.8111143 C147.491295,41.7224302 147.59977,41.6404645 147.698871,41.5652174 C147.797972,41.4899702 147.922518,41.4523467 148.072508,41.4523467 C148.27071,41.4523467 148.4207,41.5249064 148.522479,41.6700259 L148.522479,41.6700259 L149.245648,42.5649295 L149.089765,42.7356867 C148.879778,42.9545484 148.661221,43.1381515 148.434092,43.2864958 C148.150182,43.4719263 147.859575,43.6170458 147.562273,43.7218543 C147.26497,43.8266628 146.966329,43.8992226 146.666348,43.9395335 C146.366367,43.9798445 146.074421,44 145.790511,44 C145.281615,44 144.795485,43.9032537 144.332122,43.709761 C143.868758,43.5162684 143.461641,43.2354353 143.110771,42.8672617 C142.759901,42.4990882 142.481347,42.0462616 142.27511,41.508782 C142.068873,40.9713024 141.965755,40.3585757 141.965755,39.6706018 C141.965755,39.0686246 142.055481,38.5056147 142.234934,37.9815721 C142.414387,37.4575295 142.679548,37.0033592 143.030419,36.6190613 C143.381289,36.2347634 143.81519,35.9324311 144.332122,35.7120645 C144.849053,35.4916979 145.447676,35.3815145 146.127989,35.3815145 Z M137.180792,35.3492658 C137.684331,35.3492658 138.13832,35.4312314 138.542759,35.5951627 C138.947197,35.759094 139.290033,35.9875228 139.571265,36.2804492 C139.852497,36.5733756 140.068108,36.9213936 140.218098,37.3245033 C140.368089,37.727613 140.443084,38.1683463 140.443084,38.6467031 L140.443084,38.6467031 L140.443084,43.8710049 L139.302085,43.8710049 L139.167576,43.867135 C138.997444,43.8568154 138.864167,43.8258566 138.767744,43.7742586 C138.647216,43.709761 138.546776,43.5753911 138.466424,43.3711489 L138.466424,43.3711489 L138.28965,42.9116038 L138.083413,43.0818057 C137.947707,43.190496 137.815573,43.2896311 137.68701,43.3792111 C137.494165,43.513581 137.294624,43.6277954 137.088387,43.7218543 C136.88215,43.8159132 136.662522,43.8857856 136.429501,43.9314714 C136.19648,43.9771571 135.938014,44 135.654104,44 C135.273771,44 134.928257,43.9502831 134.617563,43.8508494 C134.306868,43.7514157 134.043046,43.6049525 133.826095,43.4114598 C133.609145,43.2179672 133.441745,42.9774451 133.323895,42.6898935 C133.206046,42.4023419 133.147121,42.0704482 133.147121,41.6942125 C133.147121,41.3985987 133.222116,41.0949227 133.372106,40.7831846 C133.522097,40.4714464 133.781902,40.1879259 134.151521,39.9326231 C134.52114,39.6773203 135.019323,39.4636721 135.646068,39.2916787 C136.272814,39.1196852 137.062942,39.0229389 138.016453,39.0014397 L138.016453,39.0014397 L138.016453,38.6467031 L138.011745,38.4696498 C137.989774,38.071369 137.890903,37.776994 137.715133,37.5865246 C137.514253,37.3688454 137.229003,37.2600058 136.859384,37.2600058 C136.56476,37.2600058 136.323704,37.2922545 136.136216,37.3567521 C135.948728,37.4212496 135.781328,37.4938094 135.634016,37.5744313 C135.486704,37.6550533 135.343409,37.727613 135.204132,37.7921106 C135.064856,37.8566081 134.898795,37.8888569 134.70595,37.8888569 C134.534532,37.8888569 134.388559,37.8472022 134.268031,37.7638929 C134.147503,37.6805835 134.05242,37.5771187 133.982782,37.4534984 L133.982782,37.4534984 L133.53281,36.6714656 L133.751975,36.4872691 C134.197026,36.1328617 134.682418,35.8623668 135.20815,35.6757846 C135.821504,35.4581054 136.479051,35.3492658 137.180792,35.3492658 Z M95.7070978,35.3815145 C96.3392003,35.3815145 96.9150564,35.4809483 97.4346662,35.6798157 C97.9542759,35.8786832 98.4002296,36.1635474 98.7725273,36.5344083 C99.1448249,36.9052692 99.4340922,37.3554084 99.6403291,37.8848258 C99.8465659,38.4142432 99.9496843,39.0095019 99.9496843,39.6706018 C99.9496843,40.3370765 99.8465659,40.93771 99.6403291,41.4725022 C99.4340922,42.0072944 99.1448249,42.4614646 98.7725273,42.835013 C98.4002296,43.2085613 97.9542759,43.4961129 97.4346662,43.6976677 C96.9150564,43.8992226 96.3392003,44 95.7070978,44 C95.0696384,44 94.4897647,43.8992226 93.9674766,43.6976677 C93.4451884,43.4961129 92.9952171,43.2085613 92.6175627,42.835013 C92.2399082,42.4614646 91.9479625,42.0072944 91.7417257,41.4725022 C91.5354888,40.93771 91.4323704,40.3370765 91.4323704,39.6706018 C91.4323704,39.0095019 91.5354888,38.4142432 91.7417257,37.8848258 C91.9479625,37.3554084 92.2399082,36.9052692 92.6175627,36.5344083 C92.9952171,36.1635474 93.4451884,35.8786832 93.9674766,35.6798157 C94.4897647,35.4809483 95.0696384,35.3815145 95.7070978,35.3815145 Z M76.2819973,32.1243881 L76.4187565,32.1308379 C76.5948881,32.1480372 76.7461641,32.1996353 76.8725847,32.285632 C77.0306103,32.3931279 77.1337287,32.53556 77.1819399,32.7129283 L77.1819399,32.7129283 L78.7889803,38.8401958 L78.8425483,39.0435422 C78.8782603,39.1820925 78.9139723,39.3266148 78.9496843,39.4771091 C79.0032523,39.7028506 79.0434284,39.9393416 79.0702124,40.1865822 L79.07,40.185 L79.125566,39.9388937 C79.1446124,39.8579731 79.164254,39.7786949 79.1844908,39.701059 L79.2469868,39.473078 C79.3112684,39.250024 79.3728716,39.0390632 79.4317964,38.8401958 L79.4317964,38.8401958 L81.3281041,32.7129283 L81.3636197,32.6244054 C81.4197589,32.5087398 81.5110388,32.4025338 81.6374593,32.3057875 C81.795485,32.1848546 81.9869906,32.1243881 82.2119763,32.1243881 L82.2119763,32.1243881 L83.0154965,32.1243881 L83.1519342,32.1306766 C83.3272087,32.147446 83.4759135,32.1977541 83.5980486,32.2816009 C83.7507174,32.3864094 83.8565143,32.5301852 83.9154391,32.7129283 L83.9154391,32.7129283 L85.7956763,38.8401958 L85.8554939,39.0323448 C85.8959675,39.1631315 85.9376315,39.299293 85.9804859,39.4408293 C86.0447676,39.6531337 86.101014,39.8802188 86.1492252,40.1220847 L86.149,40.12 L86.2145112,39.7754103 L86.2145112,39.7754103 L86.281806,39.4448604 C86.3273388,39.2298685 86.3742108,39.0283137 86.422422,38.8401958 L86.422422,38.8401958 L88.0294624,32.7129283 L88.062246,32.6216643 C88.1153855,32.5029888 88.2062368,32.3963528 88.3348001,32.3017564 C88.4955041,32.1835109 88.688349,32.1243881 88.9133346,32.1243881 L88.9133346,32.1243881 L91.0506983,32.1243881 L87.4348575,43.8710049 L84.9760857,43.8710049 L82.7744404,36.5908437 L82.7171896,36.4134754 L82.7171896,36.4134754 L82.65793,36.2199827 C82.617754,36.0856128 82.5789172,35.9431807 82.5414196,35.7926864 C82.5039219,35.9431807 82.4650851,36.0856128 82.4249091,36.2199827 C82.3847331,36.3543526 82.3458963,36.4779729 82.3083987,36.5908437 L82.3083987,36.5908437 L80.0746126,43.8710049 L77.6158408,43.8710049 L74,32.1243881 L76.2819973,32.1243881 Z M131.23876,31.8019004 L131.23876,43.8710049 L128.747848,43.8710049 L128.747848,31.8019004 L131.23876,31.8019004 Z M122.243352,32.1243881 L122.547246,32.1289861 C123.243588,32.1504433 123.850727,32.2470007 124.368663,32.4186582 C124.960589,32.6148383 125.448058,32.8849218 125.831069,33.2289087 C126.214081,33.5728957 126.496652,33.9786928 126.678783,34.4463 C126.860914,34.9139073 126.95198,35.4191381 126.95198,35.9619925 C126.95198,36.5478453 126.858236,37.0853249 126.670748,37.5744313 C126.48326,38.0635378 126.196671,38.4827719 125.810981,38.8321336 C125.425292,39.1814953 124.936484,39.4542662 124.344557,39.6504463 C123.752631,39.8466264 123.052229,39.9447164 122.243352,39.9447164 L122.243352,39.9447164 L120.829156,39.9447164 L120.829156,43.8710049 L118.113258,43.8710049 L118.113258,32.1243881 L122.243352,32.1243881 Z M111.046298,31.8019004 L111.046298,38.5660812 L111.415917,38.5660812 L111.525648,38.5620501 C111.628599,38.5539879 111.711211,38.5338324 111.773484,38.5015836 C111.856514,38.4585853 111.935527,38.3806507 112.010522,38.26778 L112.010522,38.26778 L113.585422,35.9136193 L113.656985,35.8158652 C113.731813,35.7251656 113.816434,35.6556291 113.910848,35.607256 C114.036732,35.5427584 114.196097,35.5105096 114.388942,35.5105096 L114.388942,35.5105096 L116.670939,35.5105096 L114.517505,38.4854593 L114.412601,38.6198292 C114.340582,38.7058259 114.264396,38.7846562 114.184044,38.8563202 C114.063516,38.9638161 113.933614,39.0605624 113.794337,39.1465592 C114.035393,39.3293022 114.244308,39.5711681 114.421083,39.8721566 L114.421083,39.8721566 L116.767362,43.8710049 L114.517505,43.8710049 L114.38166,43.8652102 C114.250586,43.8536208 114.133824,43.8246473 114.031376,43.7782897 C113.894777,43.7164795 113.783623,43.6076399 113.697915,43.4517708 L113.697915,43.4517708 L112.123015,40.4929456 L112.066267,40.4009862 C112.009016,40.3178448 111.950258,40.2611575 111.889994,40.2309243 C111.809642,40.1906133 111.689114,40.1704578 111.52841,40.1704578 L111.52841,40.1704578 L111.046298,40.1704578 L111.046298,43.8710049 L108.555385,43.8710049 L108.555385,31.8019004 L111.046298,31.8019004 Z M106.229195,35.3492658 C106.609527,35.3492658 106.914865,35.4406373 107.145208,35.6233804 L107.145208,35.6233804 L106.8238,37.4615606 L106.803711,37.5399151 C106.779606,37.6119709 106.743447,37.665131 106.695236,37.6993953 C106.630955,37.7450811 106.545246,37.767924 106.43811,37.767924 C106.347044,37.767924 106.239908,37.7558307 106.116702,37.7316441 C105.993495,37.7074575 105.838148,37.6953642 105.65066,37.6953642 C104.99713,37.6953642 104.482877,38.044726 104.107901,38.7434495 L104.107901,38.7434495 L104.107901,43.8710049 L101.616989,43.8710049 L101.616989,35.5105096 L103.095466,35.5105096 L103.211976,35.5140928 C103.285186,35.5188704 103.349468,35.5284256 103.404821,35.5427584 C103.487852,35.5642576 103.55749,35.5978501 103.613736,35.6435358 C103.669983,35.6892216 103.712837,35.7496881 103.7423,35.8249352 C103.771762,35.9001824 103.797207,35.9915539 103.818634,36.0990498 L103.818634,36.0990498 L103.955232,36.8810826 L104.111026,36.6528778 C104.37589,36.2863465 104.666794,35.9888665 104.983738,35.7604377 C105.364071,35.4863231 105.779223,35.3492658 106.229195,35.3492658 Z M138.016453,40.468759 L137.774727,40.4813002 C137.384127,40.5051882 137.054907,40.5440061 136.787067,40.5977541 C136.465659,40.6622517 136.211211,40.7428736 136.023723,40.8396199 C135.836235,40.9363663 135.706333,41.0465496 135.634016,41.1701699 C135.561699,41.2937902 135.52554,41.4281601 135.52554,41.5732796 C135.52554,41.8581438 135.603214,42.0583549 135.758561,42.173913 C135.913909,42.2894712 136.141573,42.3472502 136.441553,42.3472502 C136.762962,42.3472502 137.044194,42.2908149 137.28525,42.1779441 C137.526306,42.0650734 137.77004,41.8823304 138.016453,41.6297149 L138.016453,41.6297149 L138.016453,40.468759 Z M95.7070978,37.2358192 C95.1178496,37.2358192 94.6866271,37.437374 94.4134303,37.8404837 C94.1402334,38.2435934 94.003635,38.8590076 94.003635,39.6867262 C94.003635,40.5144448 94.1402334,41.1312026 94.4134303,41.5369997 C94.6866271,41.9427968 95.1178496,42.1456954 95.7070978,42.1456954 C96.2802755,42.1456954 96.7021236,41.9427968 96.9726421,41.5369997 C97.2431605,41.1312026 97.3784197,40.5144448 97.3784197,39.6867262 C97.3784197,38.8590076 97.2431605,38.2435934 96.9726421,37.8404837 C96.7021236,37.437374 96.2802755,37.2358192 95.7070978,37.2358192 Z M154.239526,37.1068241 C153.76277,37.1068241 153.390473,37.2425377 153.122632,37.5139649 C152.854792,37.7853921 152.678018,38.1764085 152.592309,38.6870141 L152.592309,38.6870141 L155.701932,38.6870141 C155.701932,38.4881467 155.676487,38.294654 155.625598,38.1065361 C155.574708,37.9184183 155.491678,37.7504559 155.376507,37.602649 C155.261335,37.4548421 155.110006,37.3352529 154.922518,37.2438814 C154.73503,37.1525098 154.507366,37.1068241 154.239526,37.1068241 Z M122.243352,34.1641232 L120.829156,34.1641232 L120.829156,37.8888569 L122.243352,37.8888569 C122.95045,37.8888569 123.459346,37.7195508 123.77004,37.3809387 C124.080735,37.0423265 124.236082,36.5693445 124.236082,35.9619925 C124.236082,35.6932527 124.195906,35.4486995 124.115554,35.2283329 C124.035202,35.0079662 123.913335,34.8185047 123.749952,34.6599482 C123.58657,34.5013917 123.380333,34.3791151 123.131242,34.2931183 C122.88215,34.2071216 122.586187,34.1641232 122.243352,34.1641232 L122.243352,34.1641232 Z M88.668261,19.2248776 C89.1718003,19.2248776 89.6257892,19.3068433 90.0302277,19.4707745 C90.4346662,19.6347058 90.7775014,19.8631347 91.0587335,20.156061 C91.3399656,20.4489874 91.5555768,20.7970055 91.7055672,21.2001152 C91.8555577,21.6032249 91.9305529,22.0439582 91.9305529,22.522315 L91.9305529,22.522315 L91.9305529,27.7466168 L90.7895542,27.7466168 L90.655045,27.7427469 C90.484913,27.7324273 90.3516357,27.7014685 90.2552133,27.6498704 C90.1346853,27.5853729 90.0342453,27.451003 89.9538932,27.2467607 L89.9538932,27.2467607 L89.7771188,26.7872157 L89.570882,26.9574175 C89.4351763,27.0661079 89.3030419,27.165243 89.1744787,27.2548229 C88.9816338,27.3891928 88.782093,27.5034072 88.5758561,27.5974662 C88.3696193,27.6915251 88.1499904,27.7613974 87.9169696,27.8070832 C87.6839487,27.852769 87.4254831,27.8756119 87.1415726,27.8756119 C86.7612397,27.8756119 86.415726,27.825895 86.1050316,27.7264613 C85.7943371,27.6270275 85.5305146,27.4805644 85.3135642,27.2870717 C85.0966137,27.093579 84.9292137,26.8530569 84.8113641,26.5655053 C84.6935144,26.2779537 84.6345896,25.9460601 84.6345896,25.5698244 C84.6345896,25.2742106 84.7095848,24.9705346 84.8595753,24.6587964 C85.0095657,24.3470583 85.2693706,24.0635378 85.6389899,23.808235 C86.0086091,23.5529321 86.5067917,23.339284 87.1335374,23.1672905 C87.7602831,22.9952971 88.5504113,22.8985507 89.5039219,22.8770515 L89.5039219,22.8770515 L89.5039219,22.522315 L89.4992138,22.3452617 C89.4772426,21.9469809 89.3783719,21.6526058 89.2026019,21.4621365 C89.0017218,21.2444572 88.7164722,21.1356176 88.3468529,21.1356176 C88.0522288,21.1356176 87.8111728,21.1678664 87.6236847,21.232364 C87.4361967,21.2968615 87.2687966,21.3694212 87.1214846,21.4500432 C86.9741726,21.5306651 86.8308781,21.6032249 86.6916013,21.6677224 C86.5523245,21.73222 86.3862636,21.7644688 86.1934188,21.7644688 C86.0220011,21.7644688 85.8760283,21.7228141 85.7555003,21.6395048 C85.6349723,21.5561954 85.539889,21.4527306 85.4702506,21.3291103 L85.4702506,21.3291103 L85.0202793,20.5470775 L85.2394435,20.362881 C85.6844953,20.0084735 86.1698871,19.7379787 86.6956189,19.5513965 C87.3089726,19.3337172 87.96652,19.2248776 88.668261,19.2248776 Z M104.409221,19.2248776 C104.912761,19.2248776 105.36675,19.3068433 105.771188,19.4707745 C106.175627,19.6347058 106.518462,19.8631347 106.799694,20.156061 C107.080926,20.4489874 107.296537,20.7970055 107.446528,21.2001152 C107.596518,21.6032249 107.671513,22.0439582 107.671513,22.522315 L107.671513,22.522315 L107.671513,27.7466168 L106.530515,27.7466168 L106.396005,27.7427469 C106.225873,27.7324273 106.092596,27.7014685 105.996174,27.6498704 C105.875646,27.5853729 105.775206,27.451003 105.694854,27.2467607 L105.694854,27.2467607 L105.518079,26.7872157 L105.311842,26.9574175 C105.176137,27.0661079 105.044002,27.165243 104.915439,27.2548229 C104.722594,27.3891928 104.523053,27.5034072 104.316817,27.5974662 C104.11058,27.6915251 103.890951,27.7613974 103.65793,27.8070832 C103.424909,27.852769 103.166443,27.8756119 102.882533,27.8756119 C102.5022,27.8756119 102.156686,27.825895 101.845992,27.7264613 C101.535297,27.6270275 101.271475,27.4805644 101.054525,27.2870717 C100.837574,27.093579 100.670174,26.8530569 100.552324,26.5655053 C100.434475,26.2779537 100.37555,25.9460601 100.37555,25.5698244 C100.37555,25.2742106 100.450545,24.9705346 100.600536,24.6587964 C100.750526,24.3470583 101.010331,24.0635378 101.37995,23.808235 C101.74957,23.5529321 102.247752,23.339284 102.874498,23.1672905 C103.501244,22.9952971 104.291372,22.8985507 105.244882,22.8770515 L105.244882,22.8770515 L105.244882,22.522315 L105.240174,22.3452617 C105.218203,21.9469809 105.119332,21.6526058 104.943562,21.4621365 C104.742682,21.2444572 104.457433,21.1356176 104.087813,21.1356176 C103.793189,21.1356176 103.552133,21.1678664 103.364645,21.232364 C103.177157,21.2968615 103.009757,21.3694212 102.862445,21.4500432 C102.715133,21.5306651 102.571839,21.6032249 102.432562,21.6677224 C102.293285,21.73222 102.127224,21.7644688 101.934379,21.7644688 C101.762962,21.7644688 101.616989,21.7228141 101.496461,21.6395048 C101.375933,21.5561954 101.280849,21.4527306 101.211211,21.3291103 L101.211211,21.3291103 L100.76124,20.5470775 L100.980404,20.362881 C101.425456,20.0084735 101.910848,19.7379787 102.436579,19.5513965 C103.049933,19.3337172 103.70748,19.2248776 104.409221,19.2248776 Z M127.590779,19.2571264 C128.222881,19.2571264 128.798737,19.3565601 129.318347,19.5554276 C129.837957,19.754295 130.28391,20.0391592 130.656208,20.4100202 C131.028506,20.7808811 131.317773,21.2310203 131.52401,21.7604377 C131.730247,22.2898551 131.833365,22.8851137 131.833365,23.5462136 C131.833365,24.2126884 131.730247,24.8133218 131.52401,25.348114 C131.317773,25.8829062 131.028506,26.3370765 130.656208,26.7106248 C130.28391,27.0841731 129.837957,27.3717247 129.318347,27.5732796 C128.798737,27.7748344 128.222881,27.8756119 127.590779,27.8756119 C126.953319,27.8756119 126.373446,27.7748344 125.851157,27.5732796 C125.328869,27.3717247 124.878898,27.0841731 124.501244,26.7106248 C124.123589,26.3370765 123.831643,25.8829062 123.625407,25.348114 C123.41917,24.8133218 123.316051,24.2126884 123.316051,23.5462136 C123.316051,22.8851137 123.41917,22.2898551 123.625407,21.7604377 C123.831643,21.2310203 124.123589,20.7808811 124.501244,20.4100202 C124.878898,20.0391592 125.328869,19.754295 125.851157,19.5554276 C126.373446,19.3565601 126.953319,19.2571264 127.590779,19.2571264 Z M135.830878,19.3861215 L135.830878,24.6910452 L135.836618,24.8626548 C135.859575,25.1943565 135.951406,25.4569536 136.11211,25.6504463 C136.299598,25.8761877 136.575474,25.9890585 136.939736,25.9890585 C137.212933,25.9890585 137.46872,25.9326231 137.707098,25.8197524 C137.945475,25.7068817 138.177157,25.5483252 138.402143,25.3440829 L138.402143,25.3440829 L138.402143,19.3861215 L140.893055,19.3861215 L140.893055,27.7466168 L139.350297,27.7466168 L139.238808,27.7400662 C138.990386,27.7094971 138.823991,27.5719359 138.739621,27.3273827 L138.739621,27.3273827 L138.586952,26.843651 L138.424463,26.9945932 C138.314946,27.0919367 138.203048,27.1827111 138.08877,27.2669162 C137.917352,27.3932239 137.733882,27.5007198 137.538359,27.589404 C137.342835,27.6780881 137.132581,27.7479605 136.907595,27.799021 C136.68261,27.8500816 136.436197,27.8756119 136.168357,27.8756119 C135.713029,27.8756119 135.309929,27.7963336 134.959059,27.6377771 C134.608188,27.4792207 134.312225,27.2575103 134.071169,26.9726461 C133.830113,26.6877819 133.647982,26.3518572 133.524775,25.9648719 C133.401569,25.5778866 133.339966,25.1532777 133.339966,24.6910452 L133.339966,24.6910452 L133.339966,19.3861215 L135.830878,19.3861215 Z M155.718003,16.9594011 L155.718003,19.4022459 L157.742874,19.4022459 L157.742874,21.111431 L155.718003,21.111431 L155.718003,25.263461 L155.723627,25.3755255 C155.738626,25.51957 155.783623,25.6421154 155.858619,25.7431615 C155.952363,25.8694692 156.087622,25.9326231 156.264396,25.9326231 C156.355462,25.9326231 156.431796,25.9232172 156.4934,25.9044054 C156.555003,25.8855936 156.608571,25.8640944 156.654104,25.8399079 C156.699637,25.8157213 156.742491,25.7942221 156.782667,25.7754103 C156.822843,25.7565985 156.869715,25.7471926 156.923283,25.7471926 C156.998278,25.7471926 157.058542,25.7646607 157.104075,25.7995969 C157.149608,25.8345331 157.19648,25.8896247 157.244691,25.9648719 L157.244691,25.9648719 L158,27.1500144 L157.802334,27.2878779 C157.532351,27.4620213 157.236656,27.5974662 156.915248,27.6942125 C156.513488,27.8151454 156.098336,27.8756119 155.669791,27.8756119 C155.273388,27.8756119 154.923857,27.8178328 154.621198,27.7022747 C154.318538,27.5867166 154.06409,27.4227853 153.857853,27.2104809 C153.651617,26.9981764 153.49493,26.7415299 153.387794,26.4405413 C153.280658,26.1395527 153.22709,25.803628 153.22709,25.4327671 L153.22709,25.4327671 L153.22709,21.111431 L152.519992,21.111431 L152.427085,21.1036208 C152.337694,21.0880003 152.258848,21.048949 152.190549,20.986467 C152.099483,20.9031577 152.053951,20.7808811 152.053951,20.6196372 L152.053951,20.6196372 L152.053951,19.6441117 L153.379759,19.3861215 L153.869906,17.3463864 L153.899536,17.2556867 C153.981562,17.058163 154.153817,16.9594011 154.4163,16.9594011 L154.4163,16.9594011 L155.718003,16.9594011 Z M147.847522,19.2571264 C148.302851,19.2571264 148.70595,19.3364046 149.05682,19.4949611 C149.407691,19.6535176 149.703654,19.8738842 149.94471,20.156061 C150.185766,20.4382378 150.367897,20.7741626 150.491104,21.1638353 C150.61431,21.553508 150.675914,21.9767732 150.675914,22.4336309 L150.675914,22.4336309 L150.675914,27.7466168 L148.185001,27.7466168 L148.185001,22.4336309 L148.179262,22.264078 C148.156304,21.9359961 148.064473,21.674057 147.903769,21.4782609 C147.716281,21.249832 147.440406,21.1356176 147.076143,21.1356176 C146.802946,21.1356176 146.54582,21.1947404 146.304764,21.3129859 C146.063708,21.4312314 145.833365,21.5897879 145.613736,21.7886553 L145.613736,21.7886553 L145.613736,27.7466168 L143.122824,27.7466168 L143.122824,19.3861215 L144.665583,19.3861215 L144.777322,19.392672 C144.884291,19.4057731 144.976947,19.4385258 145.05529,19.49093 C145.159747,19.5608024 145.233403,19.6656109 145.276258,19.8053556 L145.276258,19.8053556 L145.420892,20.2890872 L145.583381,20.1421762 C145.692898,20.0466242 145.804796,19.9558499 145.919074,19.8698532 C146.090492,19.740858 146.273962,19.6320184 146.469485,19.5433343 C146.665009,19.4546502 146.876602,19.3847778 147.104266,19.3337172 C147.33193,19.2826567 147.579682,19.2571264 147.847522,19.2571264 Z M118.852497,19.2571264 C119.329252,19.2571264 119.752439,19.3283425 120.122059,19.4707745 C120.491678,19.6132066 120.801033,19.8201363 121.050124,20.0915635 C121.299216,20.3629907 121.488043,20.696228 121.616606,21.0912756 C121.745169,21.4863231 121.809451,21.9337748 121.809451,22.4336309 L121.809451,22.4336309 L121.809451,27.7466168 L119.318538,27.7466168 L119.318538,22.4336309 L119.314207,22.2764496 C119.270892,21.5158949 118.902717,21.1356176 118.209681,21.1356176 C117.872202,21.1356176 117.592309,21.2471446 117.370002,21.4701987 C117.147695,21.6932527 117.036541,22.0143968 117.036541,22.4336309 L117.036541,22.4336309 L117.036541,27.7466168 L114.545628,27.7466168 L114.545628,22.4336309 L114.541234,22.2609236 C114.520728,21.8735183 114.428448,21.5951627 114.264396,21.4258566 C114.076908,21.232364 113.801033,21.1356176 113.436771,21.1356176 C113.211785,21.1356176 112.998852,21.1866782 112.797972,21.2887993 C112.597092,21.3909204 112.408265,21.5279777 112.23149,21.6999712 L112.23149,21.6999712 L112.23149,27.7466168 L109.740578,27.7466168 L109.740578,19.3861215 L111.283337,19.3861215 L111.395076,19.392672 C111.502045,19.4057731 111.594701,19.4385258 111.673044,19.49093 C111.777501,19.5608024 111.851157,19.6656109 111.894012,19.8053556 L111.894012,19.8053556 L112.03061,20.2568385 L112.171673,20.1157501 C112.266905,20.0243785 112.364518,19.9383818 112.464511,19.8577599 C112.614502,19.736827 112.776545,19.6320184 112.950641,19.5433343 C113.124737,19.4546502 113.312225,19.3847778 113.513105,19.3337172 C113.713985,19.2826567 113.934953,19.2571264 114.176009,19.2571264 C114.679548,19.2571264 115.09604,19.3874652 115.425483,19.6481428 C115.754926,19.9088204 116.005357,20.2568385 116.176774,20.6921969 C116.316051,20.4342067 116.48613,20.2138401 116.68701,20.031097 C116.88789,19.848354 117.10484,19.7005471 117.337861,19.5876764 C117.570882,19.4748056 117.817295,19.3914963 118.0771,19.3377483 C118.336905,19.2840004 118.59537,19.2571264 118.852497,19.2571264 Z M98.6118232,19.2248776 C98.9921561,19.2248776 99.2974938,19.3162492 99.5278362,19.4989922 L99.5278362,19.4989922 L99.2064282,21.3371725 L99.1863402,21.4155269 C99.1622346,21.4875828 99.1260761,21.5407429 99.0778649,21.5750072 C99.0135833,21.620693 98.9278745,21.6435358 98.8207385,21.6435358 C98.7296729,21.6435358 98.6225368,21.6314426 98.4993304,21.607256 C98.376124,21.5830694 98.2207767,21.5709761 98.0332887,21.5709761 C97.3797589,21.5709761 96.865506,21.9203378 96.4905299,22.6190613 L96.4905299,22.6190613 L96.4905299,27.7466168 L93.9996174,27.7466168 L93.9996174,19.3861215 L95.4780945,19.3861215 L95.5946049,19.3897047 C95.6678146,19.3944823 95.7320962,19.4040375 95.7874498,19.4183703 C95.8704802,19.4398695 95.9401186,19.4734619 95.996365,19.5191477 C96.0526114,19.5648335 96.0954659,19.6252999 96.1249283,19.7005471 C96.1543907,19.7757942 96.1798355,19.8671658 96.2012627,19.9746617 L96.2012627,19.9746617 L96.3378611,20.7566945 L96.4936547,20.5284896 C96.7585188,20.1619584 97.0494229,19.8644784 97.3663669,19.6360495 C97.7466998,19.3619349 98.1618519,19.2248776 98.6118232,19.2248776 Z M79.0139659,16 L79.3178598,16.004598 C80.0142021,16.0260552 80.6213411,16.1226125 81.1392768,16.2942701 C81.7312034,16.4904501 82.2186723,16.7605336 82.6016836,17.1045206 C82.9846949,17.4485075 83.2672661,17.8543046 83.4493974,18.3219119 C83.6315286,18.7895191 83.7225942,19.29475 83.7225942,19.8376044 C83.7225942,20.4234571 83.6288502,20.9609368 83.4413622,21.4500432 C83.2538741,21.9391496 82.9672852,22.3583837 82.5815956,22.7077455 C82.1959059,23.0571072 81.7070978,23.3298781 81.1151712,23.5260582 C80.5232447,23.7222382 79.8228429,23.8203282 79.0139659,23.8203282 L79.0139659,23.8203282 L77.5997704,23.8203282 L77.5997704,27.7466168 L74.8838722,27.7466168 L74.8838722,16 L79.0139659,16 Z M105.244882,24.3443709 L105.003157,24.3569121 C104.612557,24.3808 104.283337,24.419618 104.015496,24.473366 C103.694088,24.5378635 103.43964,24.6184855 103.252152,24.7152318 C103.064664,24.8119781 102.934762,24.9221614 102.862445,25.0457817 C102.790128,25.1694021 102.75397,25.303772 102.75397,25.4488914 C102.75397,25.7337556 102.831643,25.9339668 102.986991,26.0495249 C103.142338,26.165083 103.370002,26.2228621 103.669983,26.2228621 C103.991391,26.2228621 104.272623,26.1664267 104.513679,26.053556 C104.754735,25.9406853 104.998469,25.7579422 105.244882,25.5053268 L105.244882,25.5053268 L105.244882,24.3443709 Z M89.5039219,24.3443709 L89.2621963,24.3569121 C88.8715962,24.3808 88.5423761,24.419618 88.2745361,24.473366 C87.953128,24.5378635 87.6986799,24.6184855 87.5111919,24.7152318 C87.3237038,24.8119781 87.1938014,24.9221614 87.1214846,25.0457817 C87.0491678,25.1694021 87.0130094,25.303772 87.0130094,25.4488914 C87.0130094,25.7337556 87.090683,25.9339668 87.2460302,26.0495249 C87.4013775,26.165083 87.6290415,26.2228621 87.9290224,26.2228621 C88.2504305,26.2228621 88.5316625,26.1664267 88.7727186,26.053556 C89.0137746,25.9406853 89.2575091,25.7579422 89.5039219,25.5053268 L89.5039219,25.5053268 L89.5039219,24.3443709 Z M127.590779,21.111431 C127.001531,21.111431 126.570308,21.3129859 126.297111,21.7160956 C126.023914,22.1192053 125.887316,22.7346194 125.887316,23.562338 C125.887316,24.3900566 126.023914,25.0068145 126.297111,25.4126116 C126.570308,25.8184087 127.001531,26.0213072 127.590779,26.0213072 C128.163956,26.0213072 128.585804,25.8184087 128.856323,25.4126116 C129.126841,25.0068145 129.262101,24.3900566 129.262101,23.562338 C129.262101,22.7346194 129.126841,22.1192053 128.856323,21.7160956 C128.585804,21.3129859 128.163956,21.111431 127.590779,21.111431 Z M79.0139659,18.0397351 L77.5997704,18.0397351 L77.5997704,21.7644688 L79.0139659,21.7644688 C79.7210637,21.7644688 80.2299598,21.5951627 80.5406543,21.2565505 C80.8513488,20.9179384 81.006696,20.4449563 81.006696,19.8376044 C81.006696,19.5688646 80.96652,19.3243114 80.886168,19.1039447 C80.805816,18.8835781 80.6839487,18.6941165 80.5205663,18.53556 C80.3571839,18.3770036 80.150947,18.2547269 79.9018557,18.1687302 C79.6527645,18.0827335 79.3568012,18.0397351 79.0139659,18.0397351 L79.0139659,18.0397351 Z" id="type" fill="#FFFFFF"></path>
    </g>
</svg>