<?xml version="1.0" encoding="UTF-8"?>
<svg width="24px" height="24px" viewBox="0 0 24 24" version="1.1" xmlns="http://www.w3.org/2000/svg" xmlns:xlink="http://www.w3.org/1999/xlink">
    <title>A91C436E-DA46-4289-B6E4-2BD8A692DAF8</title>
    <g id="Page-1" stroke="none" stroke-width="1" fill="none" fill-rule="evenodd">
        <g id="Document---Table-selection-mode---Selected-Row-Copy-2" transform="translate(-457.000000, -657.000000)" fill-rule="nonzero">
            <g id="Group-8" transform="translate(417.000000, 407.000000)">
                <g id="Droplist-scrollable" transform="translate(10.000000, 17.000000)">
                    <g id="Buttons/Button-outline-left-icon" transform="translate(14.000000, 229.000000)">
                        <g id="Icons/table" transform="translate(16.000000, 4.000000)">
                            <rect id="ViewBox" x="0" y="0" width="24" height="24"></rect>
                            <path d="M19.2052228,4 L4.79477718,4 C4.35583386,4 4,4.35583386 4,4.79477718 L4,19.2052228 C4,19.6441661 4.35583386,20 4.79477718,20 L19.2052228,20 C19.6441661,20 20,19.6441661 20,19.2052228 L20,4.79477718 C20,4.35583386 19.6441661,4 19.2052228,4 L19.2052228,4 Z M18.4104456,8.93443088 L15.0655691,8.93443088 L15.0655691,5.58955436 L18.4104456,5.58955436 L18.4104456,8.93443088 Z M10.5239852,13.703094 L10.5239852,10.5239852 L13.4760148,10.5239852 L13.4760148,13.703094 L10.5239852,13.703094 Z M13.4760148,15.2926483 L13.4760148,18.4104456 L10.5239852,18.4104456 L10.5239852,15.2926483 L13.4760148,15.2926483 Z M8.93443088,13.703094 L5.58955436,13.703094 L5.58955436,10.5239852 L8.93443088,10.5239852 L8.93443088,13.703094 Z M10.5239852,8.93443088 L10.5239852,5.58955436 L13.4760148,5.58955436 L13.4760148,8.93443088 L10.5239852,8.93443088 Z M15.0655691,10.5239852 L18.4104456,10.5239852 L18.4104456,13.703094 L15.0655691,13.703094 L15.0655691,10.5239852 Z M8.93443088,5.58955436 L8.93443088,8.93443088 L5.58955436,8.93443088 L5.58955436,5.58955436 L8.93443088,5.58955436 Z M5.58955436,15.2926483 L8.93443088,15.2926483 L8.93443088,18.4104456 L5.58955436,18.4104456 L5.58955436,15.2926483 Z M15.0655691,18.4104456 L15.0655691,15.2926483 L18.4104456,15.2926483 L18.4104456,18.4104456 L15.0655691,18.4104456 Z" id="Shape" fill="#3589E8"></path>
                        </g>
                    </g>
                </g>
            </g>
        </g>
    </g>
</svg>